<svg width="56" height="56" viewBox="0 0 56 56" fill="black" xmlns="http://www.w3.org/2000/svg">
    <path
        d="M23.2788 54.9457C22.9438 55.2801 22.546 55.5454 22.1081 55.7264C21.6702 55.9074 21.2009 56.0006 20.7269 56.0006C20.2529 56.0006 19.7835 55.9074 19.3456 55.7264C18.9078 55.5454 18.5099 55.2801 18.1749 54.9457L1.58636 34.6193C1.08345 34.1181 0.684492 33.523 0.412294 32.8681C0.140095 32.2131 -7.62939e-06 31.511 -7.62939e-06 30.802C-7.62939e-06 30.093 0.140095 29.3909 0.412294 28.7359C0.684492 28.0809 1.08345 27.4859 1.58636 26.9847L4.13767 24.439C4.64026 23.9376 5.23696 23.5399 5.89371 23.2685C6.55046 22.9972 7.25438 22.8575 7.96527 22.8575C8.67616 22.8575 9.38008 22.9972 10.0368 23.2685C10.6936 23.5399 11.2903 23.9376 11.7929 24.439L20.7262 37.1284L44.2059 1.58206C44.7085 1.08065 45.3052 0.682901 45.9619 0.411532C46.6187 0.140162 47.3226 0.000488281 48.0335 0.000488281C48.7444 0.000488281 49.4483 0.140162 50.105 0.411532C50.7618 0.682901 51.3585 1.08065 51.8611 1.58206L54.4124 4.12774C54.9153 4.62888 55.3143 5.22395 55.5864 5.87894C55.8586 6.53393 55.9987 7.23599 55.9987 7.945C55.9987 8.65402 55.8586 9.35608 55.5864 10.0111C55.3143 10.6661 54.9153 11.2611 54.4124 11.7623L23.2788 54.9457Z"
        fill="black" />
</svg>
