<svg width="77" height="31" viewBox="0 0 77 31" fill="none" xmlns="http://www.w3.org/2000/svg">
<path d="M41.3491 0.844668C41.7696 0.609573 42.1705 0.338831 42.5818 0.0915527C41.5845 0.949355 40.5023 1.72458 39.3618 2.39061C37.5673 3.43657 35.5841 4.15224 33.5405 4.53353C30.3514 5.13052 27.0714 5.00011 23.8691 4.57866C22.48 4.38553 21.0841 4.23527 19.6832 4.15855C17.5155 4.04168 15.3287 4.08545 13.185 4.44915C11.5582 4.72982 9.94958 5.20182 8.49822 5.99554C7.46413 6.56004 6.51731 7.29601 5.76231 8.20029C4.78868 9.38027 4.08822 10.8053 3.85959 12.3205C3.56731 14.2315 4.11231 16.2346 5.26549 17.7832C6.08868 18.8711 7.26186 19.6739 8.54731 20.131C9.07322 20.3183 9.62004 20.4568 10.1773 20.51C11.3282 20.5958 12.5178 20.4297 13.5564 19.9122C14.4255 19.4875 15.1641 18.826 15.73 18.0499C16.27 17.3401 16.5941 16.4855 16.7332 15.611C16.8728 14.7983 16.7259 13.95 16.3773 13.2059C15.8741 12.1364 14.8746 11.335 13.7459 10.9898C12.9159 10.72 12.0078 10.7435 11.1759 10.9916C10.6664 11.146 10.1782 11.4203 9.84731 11.8427C9.42049 12.3819 9.30276 13.1675 9.6164 13.7884C9.86413 14.2888 10.3282 14.6435 10.815 14.8989C11.2541 15.1254 11.6746 15.4449 11.8873 15.9011C12.0923 16.3271 12.0528 16.8392 11.8409 17.2548C11.6141 17.7277 11.1846 18.0946 10.6828 18.2543C9.95049 18.493 9.14322 18.3951 8.43595 18.1189C7.47504 17.7327 6.72777 16.9421 6.24413 16.0473C5.66322 14.9743 5.41049 13.7103 5.62549 12.5042C5.8214 11.2461 6.44049 10.049 7.39776 9.19572C8.40776 8.2797 9.73413 7.74544 11.0887 7.60691C12.6769 7.42822 14.31 7.7838 15.6996 8.56037C16.9628 9.26837 18.0264 10.3216 18.7464 11.5715C19.6978 13.1955 19.9328 15.1972 19.445 17.0071C19.2246 17.8699 18.8441 18.6884 18.3409 19.4248C17.3782 20.8683 16.0078 22.0551 14.4 22.7383C12.5891 23.5162 10.5264 23.6376 8.60958 23.2134C7.50958 22.9661 6.45867 22.5212 5.49958 21.9346C4.68549 21.4455 3.95731 20.8191 3.34731 20.0949C2.8055 19.4532 2.35231 18.7412 1.96232 17.9998C1.70732 17.5066 1.45732 17.0071 1.29913 16.4737C0.854589 15.0167 0.760044 13.464 0.949589 11.9568C1.17459 10.179 1.85368 8.45614 2.93231 7.01759C3.59413 6.12234 4.3614 5.29883 5.25231 4.62423C6.83458 3.41176 8.73549 2.66992 10.6769 2.24711C12.765 1.79362 14.9137 1.68171 17.0459 1.73992C18.8741 1.79362 20.6968 1.97908 22.5055 2.24621C23.5196 2.40008 24.5305 2.57381 25.5482 2.70692C27.9123 3.02234 30.2991 3.23216 32.6864 3.1541C34.7596 3.08641 36.8423 2.77687 38.7905 2.05037C39.6773 1.72458 40.5305 1.3135 41.3491 0.844668Z" fill="#00AAA1"/>
<path d="M55.1191 2.69022C56.98 1.79497 59.0287 1.28958 61.0946 1.20701C64.6723 1.05313 68.29 2.20559 71.1064 4.40222C70.7723 4.62152 70.4373 4.83947 70.0987 5.05155C68.5969 3.94196 66.8623 3.14913 65.0441 2.71098C62.8482 2.17491 60.5218 2.17807 58.3282 2.72271C56.495 3.17079 54.7646 4.00513 53.2523 5.1242C51.685 6.28974 50.3719 7.7883 49.4159 9.4845C48.2619 11.5426 47.6287 13.8904 47.6141 16.2472C47.6009 18.5404 48.16 20.8349 49.2378 22.8646C50.8278 25.9055 53.5882 28.3232 56.8328 29.4951C57.2609 29.6571 57.7032 29.7798 58.1418 29.9107C58.5018 30.0469 58.6028 30.5613 58.3187 30.8204C58.1709 30.9999 57.9287 30.9535 57.7241 30.9508C55.9487 30.4724 54.2596 29.6751 52.7709 28.6012C49.7905 26.4704 47.6546 23.2242 46.8532 19.6689C46.2446 17.0143 46.3869 14.1972 47.2464 11.6125C47.93 9.52872 49.0773 7.59743 50.5869 5.99779C51.8741 4.62964 53.4219 3.50516 55.1191 2.69022Z" fill="#00AAA1"/>
<path d="M34.0668 6.83722C34.4068 6.50466 34.8259 6.21858 35.3109 6.16127C35.9209 6.07418 36.5614 6.34853 36.9282 6.83722C37.1873 7.17475 37.2996 7.60793 37.275 8.02894C37.2373 8.8001 36.9605 9.53336 36.6855 10.2472C36.0182 11.9177 35.2973 13.5697 34.4509 15.1594C33.9641 16.0641 33.4387 16.9517 32.8241 17.7775C32.2959 18.4814 31.7046 19.1524 30.9841 19.6681C30.3109 20.1577 29.4818 20.4777 28.6368 20.4172C28.0809 20.3734 27.5087 20.2308 27.0618 19.8843C26.5473 19.4849 26.2091 18.8952 26.0278 18.2792C26.0168 18.2828 25.9946 18.2901 25.9832 18.2937C25.0582 19.864 23.96 21.3431 22.6514 22.6206C21.4287 23.8096 20.0041 24.814 18.4096 25.4476C16.35 26.2454 14.125 26.684 11.91 26.5396C9.97503 26.4096 8.04184 25.9719 6.30184 25.1046C5.4273 24.666 4.59457 24.1431 3.82457 23.5416C3.11412 22.9924 2.4973 22.3336 1.93593 21.6378C1.12457 20.6202 0.468661 19.4732 0.0595703 18.2386C0.0604794 18.2246 0.0627521 18.1967 0.0641158 18.1827C0.572752 19.3518 1.26775 20.4456 2.12775 21.3928C3.49184 22.8855 5.25275 24.0208 7.18912 24.6317C9.33594 25.3239 11.6873 25.3442 13.8578 24.7387C15.6505 24.2532 17.2987 23.297 18.6573 22.0448C19.8482 20.9442 20.7178 19.5616 21.5459 18.1849C22.48 16.6024 23.2132 14.9153 23.9759 13.2475C24.4164 12.2728 24.8596 11.299 25.3191 10.3334C25.7291 9.47741 26.1382 8.6178 26.6478 7.8146C26.9791 7.30425 27.3559 6.80067 27.8728 6.46179C28.3309 6.15946 28.9346 6.07418 29.4514 6.27272C29.9314 6.4451 30.3264 6.83587 30.4918 7.31643C30.6618 7.7961 30.5932 8.31908 30.4873 8.80416C30.3 9.59338 29.9714 10.3384 29.6587 11.0843C29.2614 11.9971 28.8359 12.8973 28.395 13.7903C28.2123 14.1536 28.0291 14.5213 27.9264 14.9157C27.865 15.1567 27.8523 15.4391 28.0105 15.6481C28.1859 15.8728 28.4928 16.0271 28.7796 15.9378C29.1059 15.8299 29.3373 15.5556 29.5391 15.2925C30.0373 14.6071 30.3968 13.8368 30.77 13.081C31.4382 11.6921 32.0741 10.2883 32.7287 8.89306C33.0668 8.14761 33.4768 7.41706 34.0668 6.83722Z" fill="#00AAA1"/>
<path d="M72.7285 7.57622C72.9285 7.23508 73.1335 6.8971 73.3535 6.5686C75.5431 9.11133 76.819 12.4054 76.954 15.7459C77.0149 16.0297 76.9085 16.318 76.9731 16.6028C76.9321 17.7254 76.7994 18.8526 76.524 19.9455C76.4667 20.1391 76.4512 20.3625 76.2967 20.51C76.1244 20.6914 75.8253 20.7293 75.6135 20.5958C75.3917 20.4685 75.2771 20.1847 75.3621 19.9424C75.9358 17.8031 75.9962 15.527 75.514 13.3642C75.0453 11.2588 74.0876 9.25933 72.7285 7.57622Z" fill="#00AAA1"/>
<path d="M17.7256 27.2614C20.0729 26.9942 22.476 27.1418 24.7551 27.7731C26.7369 28.3276 28.642 29.2265 30.231 30.5387C30.2738 30.5838 30.3479 30.614 30.3569 30.6835C28.6397 29.8668 26.7674 29.3614 24.8669 29.2251C22.6001 29.0568 20.3297 29.4205 18.1433 29.9949C17.1529 30.2427 16.1883 30.5879 15.1856 30.7873C14.5569 30.9024 13.8815 31.0093 13.2665 30.7792C12.6697 30.5513 12.3492 29.8185 12.5797 29.2287C12.7519 28.7649 13.2029 28.4874 13.6297 28.2816C14.0465 28.0876 14.4829 27.9351 14.9292 27.8231C15.8469 27.5727 16.7765 27.3534 17.7256 27.2614Z" fill="#00AAA1"/>
<path d="M43.886 1.07037C44.4365 0.979669 45.0197 1.11053 45.4751 1.43046C46.0119 1.79957 46.3638 2.42092 46.3951 3.06935C46.4324 3.65506 46.2115 4.25024 45.8019 4.6726C45.3888 5.10669 44.7874 5.35713 44.1856 5.33908C43.5151 5.3296 42.8629 4.98441 42.476 4.44112C42.1056 3.93528 41.981 3.26429 42.1392 2.65918C42.3383 1.8483 43.0547 1.19581 43.886 1.07037Z" fill="#C61951"/>
<path d="M54.0388 5.45357C56.0465 4.04571 58.4561 3.21724 60.9093 3.0778C61.2802 3.07149 61.657 3.01959 62.0247 3.09224C62.2738 3.17798 62.5115 3.3129 62.6765 3.52137C62.9065 3.80023 63.0061 4.17972 62.9393 4.5344C62.8738 4.95675 62.5661 5.32135 62.1729 5.48696C61.9734 5.56322 61.7588 5.58488 61.5465 5.57811C59.4993 5.5939 57.4661 6.21887 55.7602 7.34019C54.312 8.28553 53.0938 9.57833 52.2515 11.0828C51.2374 12.8733 50.7679 14.9593 50.9029 17.0089C51.0174 18.9609 51.6997 20.8714 52.8279 22.4729C53.9179 24.0188 55.4188 25.2809 57.147 26.0706C59.0047 26.9284 61.1097 27.2416 63.1393 26.9686C65.0924 26.7172 66.9624 25.9009 68.4902 24.6704C69.8865 23.5536 70.9906 22.0839 71.6788 20.4405C72.2511 19.0913 72.5106 17.6243 72.5088 16.1637C72.5534 15.8704 72.6906 15.5902 72.9143 15.3903C73.2706 15.0586 73.8279 14.9657 74.2743 15.1637C74.6574 15.3217 74.932 15.6791 75.0229 16.0766C75.0643 16.5071 75.0247 16.9412 74.9988 17.3721C74.8384 19.4834 74.1447 21.5488 73.0143 23.3433C72.0947 24.8067 70.8834 26.0882 69.4734 27.0963C67.9915 28.1585 66.2861 28.9107 64.4983 29.2902C62.2829 29.7604 59.9465 29.6661 57.7802 29.005C54.4997 28.0195 51.6547 25.7132 50.0065 22.7328C48.9179 20.7857 48.342 18.5616 48.3438 16.3347C48.3374 14.0934 48.9152 11.8526 50.0152 9.89465C50.9933 8.13617 52.3833 6.60738 54.0388 5.45357Z" fill="#C61951"/>
<path d="M41.6259 6.30659C42.135 6.08052 42.7518 6.11662 43.2264 6.40902C43.7082 6.68744 44.0277 7.21358 44.0637 7.76409C44.11 8.41296 43.9232 9.04966 43.7132 9.65657C43.2755 10.8578 42.7327 12.0174 42.1814 13.1704C41.455 14.6694 40.6841 16.1472 39.8668 17.5992C39.2005 18.7837 38.4559 19.9281 37.5978 20.9858C36.5341 22.3007 35.2941 23.4883 33.8623 24.4034C32.1959 25.4544 30.2982 26.1452 28.3423 26.4123C26.4896 26.6623 24.5555 26.49 22.8296 25.7508C22.4391 25.5861 22.0641 25.3889 21.6991 25.176L21.6914 25.1502C23.7837 25.5139 25.9887 25.4526 27.9955 24.7166C29.6769 24.1133 31.165 23.0542 32.3878 21.77C33.63 20.4732 34.6091 18.9543 35.4691 17.3881C36.7891 14.9676 37.8482 12.4204 38.9818 9.91152C39.3991 9.01807 39.8396 8.12462 40.4396 7.33541C40.7623 6.92298 41.1387 6.52544 41.6259 6.30659Z" fill="#C61951"/>
<path d="M73.4294 2.54961C73.5167 2.47696 73.5735 2.35693 73.6794 2.31226C73.3103 3.08387 72.7999 3.78374 72.1972 4.39246C71.0417 5.56702 69.6758 6.50379 68.3649 7.49471C66.834 8.63318 65.3381 9.83301 64.0308 11.2246C62.2731 13.0774 60.8799 15.2664 59.9444 17.6358C59.9322 17.6728 59.9094 17.7021 59.8767 17.7233C59.8849 17.7044 59.9017 17.6669 59.9099 17.648C60.1908 15.7036 60.7708 13.7741 61.8276 12.1005C62.6967 10.7075 63.864 9.52572 65.1144 8.46712C65.7608 7.92248 66.4417 7.4189 67.1408 6.94239C67.8853 6.4352 68.6499 5.95689 69.4153 5.48129C69.6426 5.33734 69.8722 5.19701 70.0985 5.05171C70.4372 4.83963 70.7722 4.62168 71.1062 4.40238C71.9303 3.85097 72.7372 3.26121 73.4294 2.54961Z" fill="#1A1A1A"/>
<path d="M73.5372 3.87349C73.5886 3.83514 73.6172 3.75662 73.6872 3.74805C73.5063 4.12032 73.2436 4.44476 72.9768 4.75882C72.41 5.41401 71.7913 6.02183 71.1777 6.63281C69.8854 7.9062 68.5863 9.17327 67.3522 10.5026C66.1486 11.7855 65.0632 13.1712 64.005 14.5732C63.1477 15.7216 62.3013 16.8804 61.5509 18.101C61.4123 18.3596 61.0863 18.3993 60.8218 18.3808C60.6091 18.3605 60.3695 18.3 60.2413 18.1154C60.1668 18.0162 60.1982 17.8862 60.2395 17.7811C60.9377 16.0709 61.8536 14.4455 62.9863 12.9813C64.0504 11.586 65.3241 10.3632 66.6768 9.24682C68.1181 8.04834 69.6395 6.95093 71.1413 5.83006C71.9636 5.2078 72.8 4.59592 73.5372 3.87349Z" fill="#1A1A1A"/>
<path d="M74.6654 4.3172C74.9772 4.10737 75.2931 3.90116 75.6345 3.74097C75.6317 3.80098 75.5667 3.82851 75.5358 3.87228C74.724 4.69939 73.9836 5.59781 73.3536 6.56887C73.1336 6.89737 72.9286 7.23535 72.7286 7.57648C72.5772 7.83279 72.4277 8.09044 72.284 8.35081C71.8231 9.14453 71.369 9.94503 70.8227 10.6846C69.8027 12.1186 68.5245 13.3514 67.1709 14.4727C65.6822 15.6992 64.0941 16.8011 62.4745 17.8503C62.2923 17.9712 62.0932 18.0844 61.9241 18.2126C61.8859 18.1652 61.9918 18.1404 61.9914 18.0872C63.8382 15.1027 66.0309 12.3357 68.454 9.79296C69.7563 8.43338 71.1222 7.13247 72.569 5.9245C73.2458 5.36136 73.9386 4.81581 74.6654 4.3172Z" fill="#1A1A1A"/>
<path d="M62.0247 3.09233C62.1024 3.05714 62.1901 3.063 62.2742 3.06616C64.7028 3.16634 67.0992 3.94788 69.1169 5.29302C69.2169 5.35529 69.3037 5.43832 69.4156 5.48119C68.6501 5.95679 67.8856 6.4351 67.141 6.9423C65.6424 6.05381 63.911 5.58587 62.1728 5.48705C62.566 5.32145 62.8737 4.95685 62.9392 4.53449C63.006 4.17982 62.9065 3.80033 62.6765 3.52146C62.5115 3.31299 62.2737 3.17807 62.0247 3.09233Z" fill="#CCCCCC"/>
<path d="M72.2841 8.35064L72.3169 8.3335C72.4646 8.44631 72.5519 8.6259 72.665 8.773C73.8982 10.527 74.6828 12.5846 74.9455 14.7063C74.9751 15.163 75.0642 15.6174 75.0228 16.0767C74.9319 15.6792 74.6573 15.3218 74.2742 15.1639C73.8278 14.9658 73.2705 15.0587 72.9141 15.3904C72.6905 15.5903 72.5532 15.8705 72.5087 16.1638C72.4714 15.7221 72.4664 15.2771 72.3978 14.8381C72.195 13.3765 71.6769 11.9583 70.8946 10.7052C70.8764 10.6998 70.8405 10.6894 70.8228 10.6844C71.3691 9.94486 71.8232 9.14437 72.2841 8.35064Z" fill="#CCCCCC"/>
</svg>
